<svg width="119" height="77" viewBox="0 0 119 77" fill="none" xmlns="http://www.w3.org/2000/svg">
<path d="M109.612 0H8.93448C4.0082 0 0 4.0082 0 8.93448V48.9401C0 53.8664 4.0082 57.8746 8.93448 57.8746H24.123H94.4226H109.611C114.537 57.8746 118.546 53.8664 118.546 48.9401V8.93448C118.547 4.0082 114.539 0 109.612 0ZM25.4402 55.2402V51.3809H87.1188C87.8472 51.3809 88.436 50.7921 88.436 50.0637C88.436 49.3353 87.8472 48.7465 87.1188 48.7465H25.4402V47.0157C25.4402 45.8434 26.3951 44.8897 27.5674 44.8897H90.9781C92.1517 44.8897 93.1054 45.8447 93.1054 47.0157V55.2402H25.4402ZM115.912 48.9401C115.912 52.4148 113.086 55.2402 109.612 55.2402H95.7411V47.0157C95.7411 44.3905 93.6046 42.2554 90.9795 42.2554H27.5674C24.9423 42.2554 22.8058 44.3905 22.8058 47.0157V55.2402H8.93448C5.46106 55.2402 2.63437 52.4135 2.63437 48.9401V8.93448C2.63437 5.45974 5.46106 2.63437 8.93448 2.63437H109.612C113.087 2.63437 115.912 5.46106 115.912 8.93448V48.9401Z" fill="#ffc814"/>
<path d="M94.4239 11.5083H59.2734C58.5464 11.5083 57.9563 10.9182 57.9563 10.1911C57.9563 9.46399 58.5464 8.87389 59.2734 8.87389H94.4239C95.1523 8.87389 95.7411 9.46399 95.7411 10.1911C95.7411 10.9182 95.151 11.5083 94.4239 11.5083Z" fill="#ffc814"/>
<path d="M110.383 11.5083H103.303C102.575 11.5083 101.986 10.9182 101.986 10.1911C101.986 9.46399 102.575 8.87389 103.303 8.87389H110.383C111.111 8.87389 111.7 9.46399 111.7 10.1911C111.7 10.9182 111.11 11.5083 110.383 11.5083Z" fill="#ffc814"/>
<path d="M59.0666 76.227C58.3396 76.227 57.7495 75.6382 57.7495 74.9098V62.9102C57.7495 62.1818 58.3396 61.593 59.0666 61.593C59.7937 61.593 60.3838 62.1818 60.3838 62.9102V74.9098C60.3838 75.6369 59.795 76.227 59.0666 76.227Z" fill="#ffc814"/>
<path d="M72.2398 76.227C71.5114 76.227 70.9226 75.6382 70.9226 74.9098V62.9102C70.9226 62.1818 71.5114 61.593 72.2398 61.593C72.9682 61.593 73.557 62.1818 73.557 62.9102V74.9098C73.557 75.6369 72.9669 76.227 72.2398 76.227Z" fill="#ffc814"/>
<path d="M45.8948 76.227C45.1677 76.227 44.5776 75.6382 44.5776 74.9098V62.9102C44.5776 62.1818 45.1677 61.593 45.8948 61.593C46.6219 61.593 47.212 62.1818 47.212 62.9102V74.9098C47.212 75.6369 46.6232 76.227 45.8948 76.227Z" fill="#ffc814"/>
<path d="M91.0901 76.227C90.9123 76.227 90.7318 76.1914 90.5579 76.1137C86.3851 74.2657 84.2104 69.8294 84.0945 62.9313C84.0827 62.2042 84.6622 61.6049 85.3893 61.5917C85.3972 61.5917 85.4051 61.5917 85.4117 61.5917C86.1296 61.5917 86.7157 62.1673 86.7289 62.8865C86.825 68.6689 88.4728 72.307 91.6262 73.7046C92.2914 73.9996 92.5904 74.7767 92.2966 75.4419C92.078 75.9345 91.5959 76.227 91.0901 76.227Z" fill="#ffc814"/>
<path d="M27.4555 76.227C26.9497 76.227 26.4676 75.9345 26.2502 75.4432C25.9552 74.7781 26.2568 73.9996 26.922 73.7059C30.074 72.3096 31.7218 68.6702 31.8193 62.8878C31.8325 62.1594 32.47 61.6259 33.1589 61.593C33.886 61.6062 34.4655 62.2055 34.4537 62.9326C34.3365 69.832 32.1618 74.267 27.9876 76.115C27.8151 76.1901 27.6333 76.227 27.4555 76.227Z" fill="#ffc814"/>
</svg>
