<svg width="89" height="62" viewBox="0 0 89 62" fill="none" xmlns="http://www.w3.org/2000/svg">
<path d="M83.1201 27.5286H82.8771V14.6563C82.8771 6.57441 76.3027 0 68.2208 0H20.6894C12.6075 0 6.03305 6.57441 6.03305 14.6563V27.5286H5.79003C2.59716 27.5286 0 30.1257 0 33.3186V51.6331V60.8689C0 61.4152 0.442575 61.8568 0.987891 61.8568H10.2237C10.769 61.8568 11.2116 61.4152 11.2116 60.8689V52.621H77.6996V60.8689C77.6996 61.4152 78.1412 61.8568 78.6875 61.8568H87.9223C88.4686 61.8568 88.9102 61.4152 88.9102 60.8689V51.6331V33.3186C88.9102 30.1257 86.313 27.5286 83.1201 27.5286ZM8.00883 14.6563C8.00883 7.66406 13.6971 1.97578 20.6894 1.97578H68.2198C75.2121 1.97578 80.9003 7.66406 80.9003 14.6563V27.5286H62.0662V23.8477C62.0662 20.4572 59.308 17.699 55.9176 17.699H32.9926C29.6021 17.699 26.844 20.4572 26.844 23.8477V27.5286H8.00883V14.6563ZM60.0904 27.5286H28.8197V23.8477C28.8197 21.5469 30.6918 19.6748 32.9926 19.6748H55.9186C58.2194 19.6748 60.0914 21.5469 60.0914 23.8477L60.0904 27.5286ZM1.97578 33.3186C1.97578 31.2154 3.68681 29.5043 5.79003 29.5043H7.02094H27.8309H61.0773H81.8872H83.1182C85.2214 29.5043 86.9324 31.2154 86.9324 33.3186V50.6452H78.6845H10.2237H1.97578V33.3186ZM9.23579 59.88H1.97578V52.62H9.23579V59.88ZM86.9344 59.88H79.6744V52.62H86.9344V59.88Z" fill="#ffc814"/>
<path d="M80.0419 43.0137C80.0419 42.4674 79.6003 42.0258 79.054 42.0258H9.85618C9.31086 42.0258 8.86829 42.4674 8.86829 43.0137C8.86829 43.56 9.31086 44.0016 9.85618 44.0016H79.055C79.6003 44.0016 80.0419 43.56 80.0419 43.0137Z" fill="#ffc814"/>
</svg>
