<svg width="60" height="60" viewBox="0 0 60 60" fill="none" xmlns="http://www.w3.org/2000/svg">
<rect x="1" y="1" width="58" height="58" rx="4" stroke="#ffc814" stroke-width="2"/>
<path d="M6.5 52C6.5 52.8284 7.17157 53.5 8 53.5H21.5C22.3284 53.5 23 52.8284 23 52C23 51.1716 22.3284 50.5 21.5 50.5H9.5V38.5C9.5 37.6716 8.82843 37 8 37C7.17157 37 6.5 37.6716 6.5 38.5V52ZM20.9393 36.9393L6.93934 50.9393L9.06066 53.0607L23.0607 39.0607L20.9393 36.9393Z" fill="#ffc814"/>
<path d="M53.5 8C53.5 7.17157 52.8284 6.5 52 6.5H38.5C37.6716 6.5 37 7.17157 37 8C37 8.82843 37.6716 9.5 38.5 9.5H50.5V21.5C50.5 22.3284 51.1716 23 52 23C52.8284 23 53.5 22.3284 53.5 21.5V8ZM39.0607 23.0607L53.0607 9.06066L50.9393 6.93934L36.9393 20.9393L39.0607 23.0607Z" fill="#ffc814"/>
</svg>
