<svg width="82" height="71" viewBox="0 0 82 71" fill="none" xmlns="http://www.w3.org/2000/svg">
<path d="M78.6978 0H3.29711C1.47955 0 0 1.47955 0 3.29711V53.9991C0 55.8167 1.47955 57.2962 3.29711 57.2962H34.3468V62.5047H33.3054C29.3678 62.5047 26.1646 65.708 26.1646 69.6456C26.1646 70.1494 26.5727 70.5566 27.0756 70.5566H54.9184C55.4222 70.5566 55.8294 70.1494 55.8294 69.6456C55.8294 65.708 52.6262 62.5047 48.6895 62.5047H47.6482V57.2962H78.6978C80.5163 57.2962 81.9949 55.8167 81.9949 53.9991V3.29711C81.9949 1.47955 80.5163 0 78.6978 0ZM46.7371 64.3278H48.6904C51.3124 64.3278 53.4962 66.2355 53.9299 68.7354H28.065C28.4987 66.2355 30.6834 64.3278 33.3054 64.3278H35.2578C35.7607 64.3278 36.1689 63.9205 36.1689 63.4167V57.2971H45.826V63.4167C45.826 63.9205 46.2333 64.3278 46.7371 64.3278ZM80.1728 54C80.1728 54.8136 79.5105 55.475 78.6978 55.475H46.7371H35.2578H3.29711C2.48353 55.475 1.82211 54.8127 1.82211 54V3.29711C1.82211 2.48354 2.48353 1.82211 3.29711 1.82211H78.6978C79.5105 1.82211 80.1728 2.48445 80.1728 3.29711V54Z" fill="#ffc814"/>
<path d="M75.7506 5.33331H6.24437C5.74147 5.33331 5.33331 5.74147 5.33331 6.24437V47.4086C5.33331 47.9124 5.74147 48.3196 6.24437 48.3196H75.7515C76.2553 48.3196 76.6625 47.9124 76.6625 47.4086V6.24437C76.6616 5.74147 76.2544 5.33331 75.7506 5.33331ZM74.8395 46.4975H7.15542V7.15542H74.8404L74.8395 46.4975Z" fill="#ffc814"/>
<path d="M75.7505 50.9234H73.8865C73.3827 50.9234 72.9755 51.3306 72.9755 51.8345C72.9755 52.3383 73.3827 52.7455 73.8865 52.7455H75.7505C76.2544 52.7455 76.6616 52.3383 76.6616 51.8345C76.6616 51.3306 76.2544 50.9234 75.7505 50.9234Z" fill="#ffc814"/>
</svg>
